<?xml version="1.0" standalone="no"?>
<!DOCTYPE svg PUBLIC "-//W3C//DTD SVG 20010904//EN"
 "http://www.w3.org/TR/2001/REC-SVG-20010904/DTD/svg10.dtd">
<svg version="1.0" xmlns="http://www.w3.org/2000/svg"
 width="388.000000pt" height="388.000000pt" viewBox="0 0 388.000000 388.000000"
 preserveAspectRatio="xMidYMid meet">
<metadata>
Created by potrace 1.14, written by Peter Selinger 2001-2017
</metadata>
<g transform="translate(0.000000,388.000000) scale(0.100000,-0.100000)"
fill="#000000" stroke="none">
<path d="M2340 2963 c-73 -13 -138 -44 -193 -93 -28 -24 -91 -113 -93 -131 -1
-5 -2 -10 -4 -11 -21 -27 -13 -205 11 -234 6 -8 9 -14 5 -14 -12 0 48 -61 79
-80 16 -10 73 -30 125 -45 52 -14 105 -33 118 -41 30 -20 29 -59 -3 -80 -47
-31 -149 -6 -258 63 -21 13 -40 23 -41 21 -4 -5 -47 -122 -49 -133 -2 -5 -6
-15 -9 -21 -4 -5 -16 -33 -27 -61 l-20 -51 72 -30 c82 -35 132 -51 179 -59 59
-9 192 -9 243 0 111 20 212 93 260 188 32 63 35 76 36 162 1 55 -4 77 -27 125
-37 72 -92 111 -194 135 -140 33 -189 62 -174 101 9 24 61 39 109 32 49 -6
130 -39 153 -62 7 -8 17 -12 22 -9 7 5 24 63 21 78 0 4 3 7 9 7 5 0 10 6 10
13 0 8 6 27 14 43 39 84 44 99 39 107 -7 12 -85 45 -158 68 -57 18 -187 24
-255 12z"/>
<path d="M3190 2967 c-3 -3 -20 -7 -38 -10 -34 -6 -124 -47 -152 -70 -21 -16
-85 -97 -99 -124 -27 -52 -34 -188 -12 -248 31 -85 94 -129 236 -164 86 -22
120 -40 128 -70 8 -31 -36 -61 -88 -61 -44 0 -126 31 -195 75 -22 14 -42 25
-44 25 -2 0 -10 -17 -17 -37 -6 -21 -16 -44 -22 -50 -5 -7 -7 -13 -3 -13 4 0
-1 -15 -11 -32 -9 -18 -18 -35 -18 -38 -1 -3 -7 -18 -14 -35 -28 -65 -18 -74
115 -120 98 -33 134 -39 254 -39 111 1 217 29 258 70 7 8 21 19 30 26 36 26
81 95 100 152 47 141 -4 287 -119 339 -38 18 -140 45 -176 48 -15 1 -83 43
-84 51 -5 33 -1 44 21 56 48 25 162 0 237 -54 21 -15 23 -15 29 2 20 64 57
155 74 186 27 48 13 61 -120 113 -43 17 -258 34 -270 22z"/>
<path d="M366 2942 c-4 -7 -8 -31 -22 -132 -3 -19 -9 -48 -14 -65 -5 -16 -11
-55 -14 -85 -6 -55 -7 -66 -27 -170 -5 -30 -17 -93 -24 -140 -8 -47 -18 -98
-21 -115 -3 -16 -7 -46 -8 -65 -1 -19 -4 -40 -8 -45 -3 -6 -9 -42 -13 -81 l-7
-71 160 1 c88 1 163 4 166 7 3 3 8 32 11 65 3 32 8 79 11 104 3 25 10 118 16
208 10 147 13 162 30 162 10 0 18 -7 19 -17 0 -10 2 -25 4 -33 1 -8 5 -28 8
-45 6 -39 45 -183 51 -193 3 -5 7 -19 10 -33 2 -13 14 -53 25 -88 11 -36 18
-68 15 -72 -2 -4 1 -9 6 -11 6 -2 12 -13 13 -26 0 -12 8 -23 17 -23 61 -5 180
-5 188 0 5 3 15 29 21 56 15 68 17 71 41 140 20 57 24 72 34 128 2 13 13 54
25 91 12 37 21 81 21 96 0 24 29 66 31 44 0 -5 2 -18 4 -29 2 -11 6 -65 9
-120 7 -122 13 -194 21 -260 3 -27 8 -71 11 -97 3 -27 9 -48 12 -49 25 -4 309
-5 319 -1 7 2 10 8 7 13 -8 14 -14 52 -18 123 -2 36 -7 69 -10 74 -3 5 -7 24
-10 43 -2 19 -9 61 -15 94 -11 61 -18 114 -26 195 -3 25 -10 70 -17 100 -6 30
-13 62 -14 70 -5 24 -25 161 -30 200 -8 64 2 61 -190 58 l-177 -3 -14 -50 c-8
-27 -19 -60 -25 -72 -6 -13 -8 -26 -5 -30 4 -3 3 -11 -2 -17 -6 -7 -12 -23
-15 -36 -3 -14 -14 -56 -25 -95 -19 -64 -29 -115 -36 -185 -2 -14 -3 -28 -4
-32 -2 -15 -29 -8 -35 8 -3 9 -6 32 -6 53 0 21 -7 62 -17 92 -9 30 -17 61 -19
69 -6 39 -36 147 -45 163 -6 11 -8 21 -5 24 3 3 -1 18 -10 34 -8 16 -14 31
-14 34 2 48 13 45 -179 45 -99 0 -182 -3 -185 -8z"/>
<path d="M1579 2753 c-1 -231 -1 -500 0 -663 l1 -116 173 1 172 0 -2 30 c-3
69 -5 121 -3 130 1 6 2 190 2 410 l0 400 -171 3 -171 2 -1 -197z"/>
<path d="M483 1842 c-24 -2 -43 -8 -44 -15 0 -7 0 -144 1 -305 1 -333 0 -342
-66 -342 -22 0 -37 6 -40 15 -4 8 -12 15 -20 15 -7 0 -17 8 -23 18 -9 16 -10
16 -16 -3 -6 -20 -16 -44 -50 -120 -41 -93 -45 -112 -27 -128 19 -16 103 -63
115 -65 4 0 26 -4 50 -8 134 -23 248 6 320 82 48 51 67 91 78 168 10 73 16
673 6 682 -7 7 -211 11 -284 6z"/>
<path d="M921 1561 c2 -340 8 -401 48 -480 29 -56 83 -105 159 -142 56 -29 74
-32 176 -37 165 -7 251 18 336 94 47 43 95 124 105 179 15 78 22 191 12 201
-3 3 -2 17 3 30 5 13 6 25 2 28 -4 2 -6 22 -4 43 1 21 3 44 2 51 0 13 0 35 0
55 0 6 0 26 -1 42 -1 17 0 32 1 35 6 16 4 60 -3 60 -4 0 -4 8 0 18 9 18 9 61
1 84 -8 20 -306 24 -314 4 -3 -7 -6 -140 -8 -297 -3 -307 -7 -329 -56 -349
-40 -17 -103 -2 -116 28 -15 35 -16 54 -18 329 -1 155 -5 286 -10 290 -4 4
-77 9 -162 9 l-155 2 2 -277z"/>
<path d="M1946 1831 c-8 -13 -6 -895 2 -907 11 -15 302 -17 303 -2 1 15 -3
301 -5 395 0 35 4 64 9 65 6 2 21 -19 35 -47 14 -27 27 -52 30 -55 3 -3 51
-83 105 -177 55 -95 107 -175 115 -179 25 -10 303 -15 309 -5 5 7 6 876 2 914
-1 4 -71 7 -156 7 l-155 0 4 -202 c3 -112 7 -220 9 -241 7 -61 -19 -42 -67 48
-46 85 -68 123 -131 229 -22 37 -51 86 -63 109 -13 23 -29 45 -35 49 -17 11
-305 10 -311 -1z"/>
<path d="M2988 1828 c-3 -11 -3 -606 1 -843 l1 -70 308 0 307 0 0 125 0 125
-147 -1 c-101 -1 -148 2 -149 10 -12 99 -14 97 120 95 64 0 123 -1 131 0 12 1
15 20 15 108 0 60 -4 111 -9 114 -4 4 -56 5 -115 3 -144 -6 -146 -5 -147 51
-1 26 4 46 10 46 6 1 73 1 148 0 l137 -3 -1 119 c-1 73 -5 121 -12 125 -6 4
-142 8 -302 8 -225 0 -293 -3 -296 -12z"/>
</g>
</svg>
